<svg width="220" height="480" viewBox="0 0 1223 2856" xmlns="http://www.w3.org/2000/svg">
  <defs>
    <linearGradient id="glassBody" x1="0%" y1="0%" x2="100%" y2="0%">
      <stop offset="0%"   stop-color="#a8c4d0" stop-opacity=".75"/>
      <stop offset="14%"  stop-color="#d8eaf2" stop-opacity=".6"/>
      <stop offset="32%"  stop-color="#f2f8fb" stop-opacity=".82"/>
      <stop offset="52%"  stop-color="#ffffff"  stop-opacity=".9"/>
      <stop offset="70%"  stop-color="#e4f0f6" stop-opacity=".72"/>
      <stop offset="86%"  stop-color="#c0d8e4" stop-opacity=".62"/>
      <stop offset="100%" stop-color="#90b0c2" stop-opacity=".68"/>
    </linearGradient>
    <linearGradient id="shimmerGrad" x1="0%" y1="0%" x2="100%" y2="60%">
      <stop offset="0%"   stop-color="#fff" stop-opacity="0"/>
      <stop offset="45%"  stop-color="#fff" stop-opacity=".28"/>
      <stop offset="100%" stop-color="#fff" stop-opacity="0"/>
    </linearGradient>
    <linearGradient id="amberTint" x1="20%" y1="0%" x2="80%" y2="100%">
      <stop offset="0%"   stop-color="#d4c48b" stop-opacity=".06"/>
      <stop offset="100%" stop-color="#b8a060" stop-opacity=".11"/>
    </linearGradient>
    <clipPath id="bottleClip">
      <path d="M988.405 640.648L982.404 521.754L982.403 521.741V398.147L988.448 384.386L994.448 370.223L994.47 370.17L994.503 370.124L1008.01 351.4L1008.01 351.396L1022.5 331.689L1034.47 309.994L1040.44 292.367L1045.94 258L1045.94 257.976L1045.95 257.953L1053.93 227.147V198.433L1045.95 167.143L1034.47 135.345L1022.52 117.714L1008.09 101.095L994.653 93.0404L994.629 93.0266L994.608 93.0108L982.616 83.9109L969.131 75.3221L969.116 75.3132L969.102 75.3023L956.116 65.7013L926.657 48.0225L902.204 37.9244L879.205 30.3378L854.723 23.2611L818.75 14.6683L784.756 10.1169L744.775 5.06041H713.266L713.239 5.05745L675.251 1.01208H640.291L599.794 5.05844L599.77 5.06041H558.764L523.784 10.1159L523.783 10.1149L493.813 14.6633L463.832 23.2571L442.836 30.3378L419.826 37.9284L403.323 43.4938L403.313 43.4968L403.304 43.4998L387.833 48.0433L367.371 57.6363L352.4 65.7142L336.899 75.326L323.923 83.9089L312.948 92.992L303.459 101.078L292.997 110.653L282.569 126.227L274.088 153.483L274.085 153.495L274.08 153.506L262.606 184.795V225.145L268.101 257.993L274.091 292.332L282.565 309.982L293.068 331.741L293.071 331.748L293.075 331.755L300.07 347.426L313.06 370.169L313.133 370.297L313.127 370.445L305.624 540.475L305.622 540.497L294.615 667.546L294.607 667.58L274.098 759.68L274.097 759.685L242.084 896.316L242.078 896.343L242.069 896.369L207.554 994.035L207.553 994.042L207.55 994.05L168.033 1096.27L127.518 1202.54L89.0018 1303.24L59.008 1399.83L39.5097 1504.02L30.0088 1607.74L21.5062 1772.68L21.5072 1772.68L12.5035 2018.11V2287.82L5.00041 2604.61V2657.66L12.4801 2685.91L21.4711 2708.65L21.4769 2708.66L28.9693 2729.38L61.9145 2790.99L107.82 2828.85L142.18 2846.99H1023.84L1127.64 2812.15L1156.55 2768.79L1187.02 2711.18L1203.5 2655.08L1212 2598.99V2442.15L1218 2101.08V1796.46L1211 1529.3L1182 1359.35L1157.5 1277.92L1101.48 1118.01L1064.46 1007.69L1028.44 887.237L1008.93 810.298L988.418 719.703L988.405 719.648V640.648Z"/>
    </clipPath>
  </defs>

  <!-- ── BOTTLE FILL ── -->
  <path d="M988.405 640.648L982.404 521.754L982.403 521.741V398.147L988.448 384.386L994.448 370.223L994.47 370.17L994.503 370.124L1008.01 351.4L1008.01 351.396L1022.5 331.689L1034.47 309.994L1040.44 292.367L1045.94 258L1045.94 257.976L1045.95 257.953L1053.93 227.147V198.433L1045.95 167.143L1034.47 135.345L1022.52 117.714L1008.09 101.095L994.653 93.0404L994.629 93.0266L994.608 93.0108L982.616 83.9109L969.131 75.3221L969.116 75.3132L969.102 75.3023L956.116 65.7013L926.657 48.0225L902.204 37.9244L879.205 30.3378L854.723 23.2611L818.75 14.6683L784.756 10.1169L744.775 5.06041H713.266L713.239 5.05745L675.251 1.01208H640.291L599.794 5.05844L599.77 5.06041H558.764L523.784 10.1159L523.783 10.1149L493.813 14.6633L463.832 23.2571L442.836 30.3378L419.826 37.9284L403.323 43.4938L403.313 43.4968L403.304 43.4998L387.833 48.0433L367.371 57.6363L352.4 65.7142L336.899 75.326L323.923 83.9089L312.948 92.992L303.459 101.078L292.997 110.653L282.569 126.227L274.088 153.483L274.085 153.495L274.08 153.506L262.606 184.795V225.145L268.101 257.993L274.091 292.332L282.565 309.982L293.068 331.741L293.071 331.748L293.075 331.755L300.07 347.426L313.06 370.169L313.133 370.297L313.127 370.445L305.624 540.475L305.622 540.497L294.615 667.546L294.607 667.58L274.098 759.68L274.097 759.685L242.084 896.316L242.078 896.343L242.069 896.369L207.554 994.035L207.553 994.042L207.55 994.05L168.033 1096.27L127.518 1202.54L89.0018 1303.24L59.008 1399.83L39.5097 1504.02L30.0088 1607.74L21.5062 1772.68L21.5072 1772.68L12.5035 2018.11V2287.82L5.00041 2604.61V2657.66L12.4801 2685.91L21.4711 2708.65L21.4769 2708.66L28.9693 2729.38L61.9145 2790.99L107.82 2828.85L142.18 2846.99H1023.84L1127.64 2812.15L1156.55 2768.79L1187.02 2711.18L1203.5 2655.08L1212 2598.99V2442.15L1218 2101.08V1796.46L1211 1529.3L1182 1359.35L1157.5 1277.92L1101.48 1118.01L1064.46 1007.69L1028.44 887.237L1008.93 810.298L988.418 719.703L988.405 719.648V640.648Z"
    fill="url(#glassBody)" stroke="#88aabf" stroke-width="8"/>

  <!-- amber tint -->
  <path d="M988.405 640.648L982.404 521.754L982.403 521.741V398.147L988.448 384.386L994.448 370.223L994.47 370.17L994.503 370.124L1008.01 351.4L1008.01 351.396L1022.5 331.689L1034.47 309.994L1040.44 292.367L1045.94 258L1045.94 257.976L1045.95 257.953L1053.93 227.147V198.433L1045.95 167.143L1034.47 135.345L1022.52 117.714L1008.09 101.095L994.653 93.0404L994.629 93.0266L994.608 93.0108L982.616 83.9109L969.131 75.3221L969.116 75.3132L969.102 75.3023L956.116 65.7013L926.657 48.0225L902.204 37.9244L879.205 30.3378L854.723 23.2611L818.75 14.6683L784.756 10.1169L744.775 5.06041H713.266L713.239 5.05745L675.251 1.01208H640.291L599.794 5.05844L599.77 5.06041H558.764L523.784 10.1159L523.783 10.1149L493.813 14.6633L463.832 23.2571L442.836 30.3378L419.826 37.9284L403.323 43.4938L403.313 43.4968L403.304 43.4998L387.833 48.0433L367.371 57.6363L352.4 65.7142L336.899 75.326L323.923 83.9089L312.948 92.992L303.459 101.078L292.997 110.653L282.569 126.227L274.088 153.483L274.085 153.495L274.08 153.506L262.606 184.795V225.145L268.101 257.993L274.091 292.332L282.565 309.982L293.068 331.741L293.071 331.748L293.075 331.755L300.07 347.426L313.06 370.169L313.133 370.297L313.127 370.445L305.624 540.475L305.622 540.497L294.615 667.546L294.607 667.58L274.098 759.68L274.097 759.685L242.084 896.316L242.078 896.343L242.069 896.369L207.554 994.035L207.553 994.042L207.55 994.05L168.033 1096.27L127.518 1202.54L89.0018 1303.24L59.008 1399.83L39.5097 1504.02L30.0088 1607.74L21.5062 1772.68L21.5072 1772.68L12.5035 2018.11V2287.82L5.00041 2604.61V2657.66L12.4801 2685.91L21.4711 2708.65L21.4769 2708.66L28.9693 2729.38L61.9145 2790.99L107.82 2828.85L142.18 2846.99H1023.84L1127.64 2812.15L1156.55 2768.79L1187.02 2711.18L1203.5 2655.08L1212 2598.99V2442.15L1218 2101.08V1796.46L1211 1529.3L1182 1359.35L1157.5 1277.92L1101.48 1118.01L1064.46 1007.69L1028.44 887.237L1008.93 810.298L988.418 719.703L988.405 719.648V640.648Z"
    fill="url(#amberTint)"/>

  <!-- shimmer -->
  <rect x="0" y="0" width="1223" height="2856"
    fill="url(#shimmerGrad)" clip-path="url(#bottleClip)" class="shimmer"/>

  <!-- edge highlight left -->
  <path d="M 80,400 C 20,800 10,1400 20,1800 C 30,2200 80,2600 150,2780"
    fill="none" stroke="#fff" stroke-width="18"
    stroke-opacity=".3" stroke-linecap="round"/>

  <!-- ── EMBOSSED LABEL ── -->
  <!-- Q circle -->
  <circle cx="611" cy="1100" r="220"
    fill="none" stroke="#88aabf" stroke-width="10" stroke-opacity=".5"/>
  <text x="611" y="1170" text-anchor="middle"
    font-family="Georgia,serif" font-size="260" font-weight="700"
    fill="#6888a0" fill-opacity=".48">Q</text>

  <!-- ONE PINT -->
  <text x="611" y="1500" text-anchor="middle"
    font-family="Georgia,serif" font-size="80" font-weight="600"
    fill="#6888a0" fill-opacity=".62" letter-spacing="18">ONE PINT</text>

  <!-- arc: QUALITEE DAIRY PRODUCTS CO. -->
  <path id="topArc" d="M 200,1850 A 420,360 0 0 1 1022,1850" fill="none"/>
  <text font-family="Georgia,serif" font-size="58"
    fill="#6888a0" fill-opacity=".58" letter-spacing="10">
    <textPath href="#topArc" startOffset="3%">QUALITEE DAIRY PRODUCTS CO.</textPath>
  </text>

  <!-- QUALITEE -->
  <text x="611" y="2020" text-anchor="middle"
    font-family="Georgia,serif" font-size="95" font-weight="700"
    fill="#6888a0" fill-opacity=".55" letter-spacing="12">QUALITEE</text>

  <!-- SAN DIEGO arc -->
  <path id="botArc" d="M 260,2220 A 380,280 0 0 0 962,2220" fill="none"/>
  <text font-family="Georgia,serif" font-size="55"
    fill="#6888a0" fill-opacity=".48" letter-spacing="8">
    <textPath href="#botArc" startOffset="8%">SAN DIEGO · CALIF.</textPath>
  </text>

  <!-- horizontal rules -->
  <line x1="120" y1="1360" x2="1100" y2="1360"
    stroke="#88aabf" stroke-width="5" stroke-opacity=".38"/>
  <line x1="140" y1="2100" x2="1080" y2="2100"
    stroke="#88aabf" stroke-width="5" stroke-opacity=".38"/>

  <!-- ── HOTSPOTS ── (scaled to viewBox) -->
  <g class="hotspot" onclick="showPanel(event, 'rim')">
    <circle class="dot" cx="880" cy="120" r="60"/>
    <text x="880" y="142" text-anchor="middle"
      fill="#fff" font-size="90" font-family="sans-serif">+</text>
  </g>
  <g class="hotspot" onclick="showPanel(event, 'neck')">
    <circle class="dot" cx="200" cy="420" r="60"/>
    <text x="200" y="442" text-anchor="middle"
      fill="#fff" font-size="90" font-family="sans-serif">+</text>
  </g>
  <g class="hotspot" onclick="showPanel(event, 'pint')">
    <circle class="dot" cx="1080" cy="1500" r="60"/>
    <text x="1080" y="1522" text-anchor="middle"
      fill="#fff" font-size="90" font-family="sans-serif">+</text>
  </g>
  <g class="hotspot" onclick="showPanel(event, 'dairy')">
    <circle class="dot" cx="910" cy="1080" r="60"/>
    <text x="910" y="1102" text-anchor="middle"
      fill="#fff" font-size="90" font-family="sans-serif">+</text>
  </g>
  <g class="hotspot" onclick="showPanel(event, 'glass')">
    <circle class="dot" cx="611" cy="2800" r="60"/>
    <text x="611" y="2822" text-anchor="middle"
      fill="#fff" font-size="90" font-family="sans-serif">+</text>
  </g>
</svg>
